<svg xmlns="http://www.w3.org/2000/svg" viewBox="0 0 395.55 123.06"><defs><style>.cls-1{fill:#ff8f72;}.cls-2{fill:#ffe266;}.cls-3{fill:#d0e287;}.cls-4,.cls-5{fill:#fff;}.cls-5{fill-rule:evenodd;}</style></defs><g id="Capa_2" data-name="Capa 2"><g id="Capa_1-2" data-name="Capa 1"><path class="cls-1" d="M82.34,50.16c7.76,10.58-.06,25.49-3,31.1A46.05,46.05,0,0,1,65.61,96.91L65,96.49A40.77,40.77,0,0,1,51.55,81.05a44.62,44.62,0,0,1-4.12-21.3c.68-10,5-14.36,8.48-16.29a17.39,17.39,0,0,1,8.39-2C71.05,41.46,78.31,44.67,82.34,50.16Z"/><path class="cls-2" d="M104.31,58.08a50.41,50.41,0,0,1-3,20.71c-4.24,11.72-12,20.4-19.66,22.12a18.44,18.44,0,0,1-10.92-1.29A50.22,50.22,0,0,0,84,83.7,63,63,0,0,0,90,68.42C92,60,90.79,52.77,86.58,47,79.2,37,63.68,33.16,53.36,38.86c-14.46,8-13.1,31-6.55,44.49A46.24,46.24,0,0,0,61,100.14,73,73,0,0,1,48.58,107,56.5,56.5,0,0,1,32.52,87,60.44,60.44,0,0,1,27,60.29C27.42,49,31.39,40,38.85,33.46a39.67,39.67,0,0,1,26.24-9.38,43.3,43.3,0,0,1,4.39.22C80.89,25.41,91,30.67,97.22,38.73A35.48,35.48,0,0,1,104.31,58.08Z"/><path class="cls-3" d="M111.54,25.9c19.15,23.66,9.48,53.65,9.06,54.91-9.21,27.68-27.17,34.44-34.47,36.06-13.19,2.94-24.52-1.56-31.69-5.84l-.85-.52a89.21,89.21,0,0,0,12.31-7.34c5.81,3,11.69,4,16.9,2.88,4.84-1.08,9.64-4.17,13.87-8.92a51.34,51.34,0,0,0,9.59-16.55,55.5,55.5,0,0,0,3.29-22.9,40.48,40.48,0,0,0-8.17-22.16C94.28,26.31,82.84,20.31,70,19.06s-25.6,2.55-34.61,10.45c-8.46,7.42-13.17,18-13.61,30.59a65.66,65.66,0,0,0,6,29.09,61.36,61.36,0,0,0,15,19.79,26.74,26.74,0,0,1-15.07.1c-8.11-2.6-14.78-10.35-18.79-21.83A68.69,68.69,0,0,1,6.4,52.75c2.42-12.16,8.76-22.87,18.86-31.83A66.42,66.42,0,0,1,41,10.41a63.94,63.94,0,0,1,37.34-4C91.86,9,103.34,15.77,111.54,25.9Z"/><path class="cls-4" d="M126.08,42.53a66.26,66.26,0,0,1,2.61,18.83,72.33,72.33,0,0,1-3.09,21.11c-3.35,10.07-13.8,34.08-38.33,39.54a44.1,44.1,0,0,1-9.59,1,46.47,46.47,0,0,1-9-.89,53.21,53.21,0,0,1-17-6.63q-2-1.22-4-2.6c-6.69,2.36-14.3,3.5-21.65,1.15C16.37,111,8.5,102.07,3.94,89a74.21,74.21,0,0,1-2.7-37.26C7.62,19.58,37.61,6.15,38.89,5.59A69.16,69.16,0,0,1,79.33,1.26c14.76,2.85,27.31,10.23,36.3,21.33A57.49,57.49,0,0,1,126.08,42.53ZM120.6,80.81c.42-1.26,10.09-31.25-9.06-54.91C103.34,15.77,91.86,9,78.33,6.42a63.94,63.94,0,0,0-37.34,4A66.42,66.42,0,0,0,25.26,20.92c-10.1,9-16.44,19.67-18.86,31.83a68.69,68.69,0,0,0,2.51,34.5c4,11.48,10.68,19.23,18.79,21.83a26.74,26.74,0,0,0,15.07-.1,61.36,61.36,0,0,1-15-19.79,65.66,65.66,0,0,1-6-29.09c.44-12.58,5.15-23.17,13.61-30.59C44.38,21.61,57,17.8,70,19.06s24.3,7.25,31.4,16.46a40.48,40.48,0,0,1,8.17,22.16,55.5,55.5,0,0,1-3.29,22.9,51.34,51.34,0,0,1-9.59,16.55c-4.23,4.75-9,7.84-13.87,8.92-5.21,1.16-11.09.14-16.9-2.88a89.21,89.21,0,0,1-12.31,7.34l.85.52c7.17,4.28,18.5,8.78,31.69,5.84C93.43,115.25,111.39,108.49,120.6,80.81Zm-19.29-2a50.41,50.41,0,0,0,3-20.71,35.48,35.48,0,0,0-7.09-19.35C91,30.67,80.89,25.41,69.48,24.3a43.3,43.3,0,0,0-4.39-.22,39.67,39.67,0,0,0-26.24,9.38C31.39,40,27.42,49,27,60.29A60.44,60.44,0,0,0,32.52,87a56.5,56.5,0,0,0,16.06,20A73,73,0,0,0,61,100.14a46.24,46.24,0,0,1-14.2-16.79c-6.55-13.52-7.91-36.5,6.55-44.49C63.68,33.16,79.2,37,86.58,47,90.79,52.77,92,60,90,68.42A63,63,0,0,1,84,83.7,50.22,50.22,0,0,1,70.73,99.62a18.44,18.44,0,0,0,10.92,1.29C89.35,99.19,97.07,90.51,101.31,78.79Zm-22,2.47c3-5.61,10.77-20.52,3-31.1-4-5.49-11.29-8.7-18-8.7a17.39,17.39,0,0,0-8.39,2c-3.49,1.93-7.8,6.32-8.48,16.29a44.62,44.62,0,0,0,4.12,21.3A40.77,40.77,0,0,0,65,96.49l.64.42A46.05,46.05,0,0,0,79.33,81.26Z"/><path class="cls-5" d="M71.75,55.89a8.44,8.44,0,0,0-13.16,10.5c3.11,4.43,10.61,4.53,13.86.28A8.53,8.53,0,0,0,71.75,55.89Z"/><path class="cls-4" d="M195.19,43.34q6.45,5.4,6.45,15.74V94.66H193l-.55-7.89q-10.12,9-20.57,9a16.37,16.37,0,0,1-17-17,15,15,0,0,1,6.73-13q6.73-4.66,20.29-2.45L192,65V58.41q0-6-3.83-9.06a15.5,15.5,0,0,0-10-3.06q-9.78,0-14.9,7.67l-6.78-6q6.9-10,22.13-10Q188.75,38,195.19,43.34ZM167.33,84.6A9.35,9.35,0,0,0,174.06,87q8.67,0,17.9-8.45V72.2l-9.12-1.56q-9.66-1.77-13.84.61a7.69,7.69,0,0,0-4.17,7.07A8.29,8.29,0,0,0,167.33,84.6Z"/><path class="cls-4" d="M280.8,70.09h-42Q239.55,78,244,82.6t12,4.61a16.37,16.37,0,0,0,8.56-2.06A22.25,22.25,0,0,0,271.35,78l6.9,4.78q-7.23,13-22.58,13-12.12,0-19.29-8.06T229.21,67q0-12.67,7.22-20.85T255.67,38q11.68,0,18.46,8t6.78,20.9C280.91,68.27,280.88,69.35,280.8,70.09ZM244.44,50.74A20.26,20.26,0,0,0,239,62.41h33q-.78-7.44-4.95-11.73T255.89,46.4Q248.78,46.4,244.44,50.74Z"/><path class="cls-4" d="M290.93,26.88a5.93,5.93,0,0,1-1.95-4.5,6.25,6.25,0,0,1,1.95-4.67,6.38,6.38,0,0,1,4.61-1.89,6.15,6.15,0,0,1,4.5,1.95A6.28,6.28,0,0,1,302,22.38a6,6,0,0,1-1.89,4.5,6.29,6.29,0,0,1-4.56,1.84A6.45,6.45,0,0,1,290.93,26.88Zm-.39,12.18h9.78v55.6h-9.78Z"/><path class="cls-4" d="M349.3,41.29l-4.78,7.11a16,16,0,0,0-7.79-1.78,14.88,14.88,0,0,0-11,4.84,16.58,16.58,0,0,0-4.73,12.07V94.66h-9.78V39.06h9l.44,8.45Q327.4,38,337.18,38,344.85,38,349.3,41.29Z"/><path class="cls-4" d="M389.1,43.34q6.45,5.4,6.45,15.74V94.66h-8.67l-.56-7.89q-10.12,9-20.57,9a16.38,16.38,0,0,1-17-17,15,15,0,0,1,6.73-13q6.74-4.66,20.3-2.45L385.88,65V58.41q0-6-3.84-9.06a15.49,15.49,0,0,0-10-3.06q-9.79,0-14.9,7.67l-6.79-6q6.9-10,22.13-10Q382.66,38,389.1,43.34ZM361.24,84.6A9.35,9.35,0,0,0,368,87q8.67,0,17.91-8.45V72.2l-9.12-1.56q-9.67-1.77-13.85.61a7.69,7.69,0,0,0-4.17,7.07A8.33,8.33,0,0,0,361.24,84.6Z"/></g></g></svg>