<svg xmlns="http://www.w3.org/2000/svg" viewBox="0 0 229.01 309.75"><defs><style>.cls-1,.cls-2{fill:#fff;}.cls-2{fill-rule:evenodd;}</style></defs><g id="Capa_2" data-name="Capa 2"><g id="Capa_1-2" data-name="Capa 1"><path class="cls-1" d="M224.36,75.68A117.77,117.77,0,0,1,229,109.19a128.63,128.63,0,0,1-5.51,37.57c-6,17.92-24.54,60.65-68.2,70.36A78.84,78.84,0,0,1,138.24,219a81.9,81.9,0,0,1-16-1.59,94.57,94.57,0,0,1-30.2-11.79Q88.44,203.45,85,201c-11.92,4.2-25.45,6.24-38.54,2.05C29.14,197.49,15.13,181.63,7,158.36-.16,137.82-2,113,2.21,92.05c11.35-57.2,64.72-81.11,67-82.1a123.1,123.1,0,0,1,72-7.71c26.27,5.08,48.6,18.2,64.59,37.95A102.16,102.16,0,0,1,224.36,75.68Zm-9.75,68.12c.75-2.25,17.95-55.6-16.13-97.72-14.58-18-35-30-59.09-34.65A113.58,113.58,0,0,0,73,18.53a117.51,117.51,0,0,0-28,18.7c-18,16-29.26,35-33.56,56.64-3.85,19.42-2.18,42.37,4.46,61.4,7.13,20.43,19,34.22,33.45,38.83,8.8,2.82,18.07,2.16,26.81-.17a109.18,109.18,0,0,1-26.72-35.21A116.9,116.9,0,0,1,38.73,107C39.51,84.55,47.89,65.72,63,52.5c16-14,38.47-20.83,61.59-18.58,22.87,2.22,43.24,12.89,55.88,29.28,8.5,11,13.39,24.31,14.53,39.45a99.13,99.13,0,0,1-5.86,40.74A91.3,91.3,0,0,1,172,172.84c-7.53,8.46-16.08,13.95-24.69,15.88-9.26,2.06-19.73.24-30.08-5.13a155.51,155.51,0,0,1-21.9,13.06c.5.31,1,.62,1.51.92,12.77,7.63,32.92,15.63,56.4,10.41C166.26,205.09,198.23,193.05,214.61,143.8Zm-34.33-3.6a89.58,89.58,0,0,0,5.33-36.85c-1-13.29-5.24-24.87-12.61-34.43C161.94,54.57,144,45.21,123.63,43.24c-2.61-.26-5.22-.38-7.8-.38-17.72,0-34.41,5.9-46.7,16.68-13.26,11.64-20.34,27.7-21,47.74a107.35,107.35,0,0,0,9.79,47.48,100.65,100.65,0,0,0,28.57,35.62,129.94,129.94,0,0,0,22.12-12.18A82.36,82.36,0,0,1,83.3,148.32C71.65,124.26,69.22,83.37,95,69.14c18.35-10.13,46-3.33,59.11,14.58,7.48,10.19,9.56,23,6.16,38-2.65,11.74-7.93,21.8-10.77,27.2a89.38,89.38,0,0,1-23.6,28.32c6.88,2.8,13.55,3.62,19.43,2.31C159,176.51,172.74,161.06,180.28,140.2Zm-39.11,4.4c5.24-10,19.17-36.51,5.35-55.34-7.16-9.76-20.09-15.49-32.1-15.49a30.84,30.84,0,0,0-14.93,3.57c-6.21,3.43-13.87,11.25-15.09,29a79.59,79.59,0,0,0,7.33,37.91,72.52,72.52,0,0,0,23.88,27.46l1.14.76A82,82,0,0,0,141.17,144.6Z"/><path class="cls-2" d="M127.68,99.46a15,15,0,0,0-23.42,18.69c5.54,7.88,18.89,8.06,24.67.49A15.19,15.19,0,0,0,127.68,99.46Z"/><path class="cls-1" d="M43.31,262.73q5.77,4.83,5.78,14.11v31.91H41.31l-.5-7.08q-9.08,8.07-18.44,8.08A14.69,14.69,0,0,1,7.11,294.49a13.41,13.41,0,0,1,6-11.67q6-4.19,18.2-2.19l9.08,1.49v-5.88q0-5.39-3.45-8.13a13.84,13.84,0,0,0-8.92-2.74q-8.78,0-13.36,6.88L8.6,266.86q6.2-9,19.85-9Q37.53,257.89,43.31,262.73Zm-25,37a8.35,8.35,0,0,0,6,2.15q7.77,0,16.06-7.58V288.6l-8.18-1.39c-5.79-1.07-9.92-.88-12.42.55a6.89,6.89,0,0,0-3.74,6.33A7.41,7.41,0,0,0,18.33,299.72Z"/><path class="cls-1" d="M120.08,286.71H82.39q.69,7.08,4.69,11.22t10.77,4.14a14.81,14.81,0,0,0,7.68-1.85,20.08,20.08,0,0,0,6.08-6.43l6.18,4.29q-6.48,11.67-20.24,11.67-10.87,0-17.3-7.23t-6.44-18.6q0-11.37,6.49-18.7t17.25-7.33q10.47,0,16.55,7.18t6.08,18.75C120.18,285.08,120.15,286,120.08,286.71Zm-32.6-17.35a18.09,18.09,0,0,0-4.89,10.47h29.62q-.7-6.69-4.44-10.52t-10-3.84A13.84,13.84,0,0,0,87.48,269.36Z"/><path class="cls-1" d="M129.16,248a5.36,5.36,0,0,1-1.74-4,5.62,5.62,0,0,1,1.74-4.19,5.77,5.77,0,0,1,4.14-1.7,5.56,5.56,0,0,1,4,1.75,5.66,5.66,0,0,1,1.75,4.14,5.43,5.43,0,0,1-1.7,4,5.68,5.68,0,0,1-4.09,1.64A5.88,5.88,0,0,1,129.16,248Zm-.35,10.92h8.78v49.86h-8.78Z"/><path class="cls-1" d="M181.51,260.88l-4.29,6.38a14.29,14.29,0,0,0-7-1.59,13.3,13.3,0,0,0-9.82,4.34,14.83,14.83,0,0,0-4.24,10.82v27.92h-8.77V258.89h8.07l.4,7.57q6-8.56,14.76-8.57Q177.52,257.89,181.51,260.88Z"/><path class="cls-1" d="M217.2,262.73q5.79,4.83,5.79,14.11v31.91h-7.78l-.5-7.08q-9.08,8.07-18.45,8.08A14.69,14.69,0,0,1,181,294.49a13.42,13.42,0,0,1,6-11.67q6-4.19,18.2-2.19l9.07,1.49v-5.88c0-3.59-1.14-6.3-3.44-8.13a13.86,13.86,0,0,0-8.92-2.74q-8.77,0-13.37,6.88l-6.08-5.39q6.18-9,19.84-9Q211.41,257.89,217.2,262.73Zm-25,37a8.39,8.39,0,0,0,6,2.15q7.77,0,16.05-7.58V288.6l-8.18-1.39q-8.67-1.6-12.41.55a6.89,6.89,0,0,0-3.74,6.33A7.44,7.44,0,0,0,192.22,299.72Z"/></g></g></svg>